HIERARCHY
ROOT Hips
{
	OFFSET 0.000000 0.000000 0.000000 
	CHANNELS 6 Xposition Yposition Zposition Zrotation Yrotation Xrotation
	JOINT LeftUpLeg
	{
		OFFSET 1.363060 -1.794630 0.839290 
		CHANNELS 3 Zrotation Yrotation Xrotation
		JOINT LeftLeg
		{
			OFFSET 2.448110 -6.726130 0.000000 
			CHANNELS 3 Zrotation Yrotation Xrotation
			JOINT LeftFoot
			{
				OFFSET 2.562200 -7.039590 0.000000 
				CHANNELS 3 Zrotation Yrotation Xrotation
				JOINT LeftToeBase
				{
					OFFSET 0.157640 -0.433110 2.322550 
					CHANNELS 3 Zrotation Yrotation Xrotation
					End Site
					{
						OFFSET 0.000000 0.000000 0.000000 
					}
				}
			}
		}
	}
	JOINT RightUpLeg
	{
		OFFSET -1.305520 -1.794630 0.839290 
		CHANNELS 3 Zrotation Yrotation Xrotation
		JOINT RightLeg
		{
			OFFSET -2.542530 -6.985550 0.000000 
			CHANNELS 3 Zrotation Yrotation Xrotation
			JOINT RightFoot
			{
				OFFSET -2.568260 -7.056230 0.000000 
				CHANNELS 3 Zrotation Yrotation Xrotation
				JOINT RightToeBase
				{
					OFFSET -0.164730 -0.452590 2.363150 
					CHANNELS 3 Zrotation Yrotation Xrotation
					End Site
					{
						OFFSET 0.000000 0.000000 0.000000 
					}
				}
			}
		}
	}
	JOINT Spine
	{
		OFFSET 0.028270 2.035590 -0.193380 
		CHANNELS 3 Zrotation Yrotation Xrotation
		JOINT Spine1
		{
			OFFSET 0.056720 2.048850 -0.042750 
			CHANNELS 3 Zrotation Yrotation Xrotation
			JOINT Neck1
			{
				OFFSET -0.054170 1.746240 0.172020 
				CHANNELS 3 Zrotation Yrotation Xrotation
				JOINT Head
				{
					OFFSET 0.104070 1.761360 -0.123970 
					CHANNELS 3 Zrotation Yrotation Xrotation
					End Site
					{
						OFFSET 0.000000 0.000000 0.000000 
					}
				}
			}
			JOINT LeftArm
			{
				OFFSET 3.362410 1.200890 -0.311210 
				CHANNELS 3 Zrotation Yrotation Xrotation
				JOINT LeftForeArm
				{
					OFFSET 4.983000 -0.000000 -0.000000 
					CHANNELS 3 Zrotation Yrotation Xrotation
					JOINT LeftHand
					{
						OFFSET 3.483560 -0.000000 -0.000000 
						CHANNELS 3 Zrotation Yrotation Xrotation
						JOINT LeftHandIndex1
						{
							OFFSET 0.715260 -0.000000 -0.000000 
							CHANNELS 3 Zrotation Yrotation Xrotation
							End Site
							{
								OFFSET 0.000000 0.000000 0.000000 
							}
						}
					}
				}
			}
			JOINT RightArm
			{
				OFFSET -3.136600 1.374050 -0.404650 
				CHANNELS 3 Zrotation Yrotation Xrotation
				JOINT RightForeArm
				{
					OFFSET -5.241900 -0.000000 -0.000000 
					CHANNELS 3 Zrotation Yrotation Xrotation
					JOINT RightHand
					{
						OFFSET -3.444170 -0.000000 -0.000000 
						CHANNELS 3 Zrotation Yrotation Xrotation
						JOINT RightHandIndex1
						{
							OFFSET -0.622530 -0.000000 -0.000000 
							CHANNELS 3 Zrotation Yrotation Xrotation
							End Site
							{
								OFFSET 0.000000 0.000000 0.000000 
							}
						}
					}
				}
			}
		}
	}
}
MOTION
Frames: 15
Frame Time: 0.041667
4.297474 17.745906 18.220614 -22.306394 -63.238532 26.828207 -1.989967 -1.974381 -38.299819 1.968223 10.130760 28.386411 -1.083608 12.352670 -15.137572 0.201000 -2.886700 -7.963500 28.885220 -6.167297 -9.349355 -1.297757 -8.725457 24.861269 0.173777 -14.278986 -25.459276 -0.155300 -2.539200 6.998400 4.170163 8.004644 0.660184 -1.969036 3.737571 -3.292529 -6.615411 7.833195 15.979440 -1.950800 3.158000 6.962800 -89.624587 3.464769 22.917954 16.575815 -26.721842 -4.291196 -0.179662 -0.046284 -1.188195 -7.125000 0.000000 0.000000 80.779379 4.184585 14.103611 -10.659706 18.312751 -1.915531 0.140263 0.347353 -7.549155 7.125000 0.000000 0.000000 
4.239647 17.760846 18.271632 -19.870351 -63.622658 24.951759 -2.843095 -2.759696 -38.423183 1.917319 10.071295 28.163175 -1.535022 15.046910 -15.468977 0.385000 -3.984600 -11.033200 27.523953 -6.020963 -9.145936 -1.226388 -8.585387 24.431273 0.287491 -14.645597 -25.187407 -0.139900 -2.410400 6.641400 3.898726 7.993145 0.628671 -1.640040 3.759181 -3.349846 -6.447168 7.891820 16.006470 -1.883200 3.196100 6.976700 -89.570217 3.736021 22.511200 16.520726 -26.659622 -4.267277 -0.186676 -0.047883 -1.201469 -7.125000 0.000000 0.000000 80.743107 4.331526 14.773259 -10.654433 18.296544 -1.907354 0.168629 0.227268 -8.185155 7.125000 0.000000 0.000000 
4.168202 17.715926 18.305779 -24.673453 -62.285132 28.737626 0.301090 -3.429521 -37.645066 1.951863 10.035331 28.025825 -1.754803 16.334148 -16.103707 0.331500 -3.700400 -10.235200 30.408003 -5.932983 -8.082473 -1.192222 -8.476460 24.108537 0.311884 -15.267828 -25.689426 -0.151400 -2.507600 6.910800 4.396731 8.192870 0.702071 -1.961513 3.812322 -3.305241 -6.280187 7.891523 16.099860 -1.798300 3.197100 7.011700 -89.522558 3.854989 22.214448 16.373266 -26.466313 -4.198359 -0.192519 -0.046956 -1.390448 -7.125000 0.000000 0.000000 80.751528 4.346651 15.650562 -10.840464 18.574186 -1.964897 0.214461 0.174190 -8.722921 7.125000 0.000000 0.000000 
4.123892 17.730154 18.379257 -21.808501 -62.762426 26.871657 -0.566709 -5.039004 -37.786623 1.907463 9.997189 27.850764 -2.347356 19.536815 -16.613581 0.427000 -4.193800 -11.622600 28.674210 -6.555381 -8.718039 -1.150067 -8.390667 23.848662 0.383923 -15.090018 -25.011637 -0.117700 -2.211500 6.090500 4.064561 8.186120 0.587673 -1.677071 3.843288 -3.339150 -6.360990 7.996641 16.081011 -1.836700 3.248700 7.001900 -89.611330 3.963955 21.799716 16.151001 -26.183331 -4.097783 -0.194726 -0.043244 -1.574776 -7.125000 0.000000 0.000000 80.742699 4.511690 16.120794 -10.847091 18.574250 -1.962918 0.253394 0.158995 -7.690740 7.125000 0.000000 0.000000 
4.077448 17.728833 18.449686 -21.700230 -62.910282 27.102489 -0.209442 -6.115991 -37.625457 1.927982 10.030635 27.926776 -2.786192 21.919537 -17.682843 0.380700 -3.962600 -10.971600 28.386552 -6.941122 -8.793565 -1.103881 -8.272602 23.486179 0.596243 -15.614472 -24.136925 -0.043100 -1.339800 3.684200 3.965660 8.324412 0.547082 -1.707405 3.921198 -3.310149 -6.424101 8.116393 16.023522 -1.866400 3.311700 6.975500 -89.690453 4.091805 21.254617 15.963969 -25.940672 -4.013468 -0.197597 -0.043815 -1.393159 -7.125000 0.000000 0.000000 80.883502 4.813131 15.616592 -10.759981 18.432627 -1.932241 0.271950 0.157398 -6.994258 7.125000 0.000000 0.000000 
4.026430 17.729443 18.521740 -21.927089 -63.055963 27.556636 0.146996 -6.542755 -37.485759 1.878657 9.956431 27.705741 -2.864966 22.834983 -19.436194 0.140900 -2.419000 -6.665100 28.233031 -6.990918 -8.803255 -1.104237 -8.270948 23.479855 0.620621 -15.587876 -23.907899 -0.025500 -1.030400 2.832400 3.816340 8.464885 0.510969 -1.929390 3.999363 -3.263412 -6.190086 8.164279 15.971684 -1.771500 3.356100 6.924800 -89.586412 4.183509 20.650099 15.736683 -25.642778 -3.912367 -0.199099 -0.044462 -1.084457 -7.125000 0.000000 0.000000 81.252784 5.112654 14.756620 -10.716972 18.356172 -1.916956 0.286795 0.172384 -6.541855 7.125000 0.000000 0.000000 
3.968806 17.714605 18.586071 -22.455951 -62.803092 28.354451 0.402051 -6.386427 -37.828546 1.849074 9.933592 27.674103 -2.561285 22.439431 -21.754220 0.000400 -0.135600 -0.372600 28.483681 -6.945767 -8.794112 -1.081468 -8.223699 23.346060 0.499177 -15.156091 -24.226989 -0.047200 -1.402600 3.857300 3.782091 8.537478 0.424746 -2.011676 4.038060 -3.254666 -6.014967 8.168598 15.874179 -1.705700 3.378300 6.845700 -89.535000 4.267378 20.092607 15.450488 -25.266001 -3.786083 -0.201082 -0.042493 -0.860974 -7.125000 0.000000 0.000000 81.478617 5.380611 13.983346 -10.620460 18.199859 -1.884370 0.300793 0.211484 -5.413434 7.125000 0.000000 0.000000 
3.909252 17.706779 18.653350 -22.300632 -62.741265 28.300304 0.243222 -6.322253 -37.787988 1.820653 9.949719 27.771795 -1.997712 21.418245 -24.664700 0.132200 2.343900 6.457100 28.336624 -6.485312 -8.239041 -1.042656 -8.149081 23.123559 0.426221 -15.130718 -24.765387 -0.089300 -1.927100 5.304100 3.764733 8.617181 0.437424 -1.878206 4.083880 -3.243242 -6.113156 8.201292 15.916855 -1.741300 3.383000 6.894800 -89.642159 4.351639 19.621494 15.242826 -24.990654 -3.695736 -0.197969 -0.043039 -0.726831 -7.125000 0.000000 0.000000 81.307378 5.372856 14.983439 -10.759211 18.407723 -1.929631 0.311901 0.291046 -6.545938 7.125000 0.000000 0.000000 
3.843803 17.708914 18.724998 -21.406080 -62.664445 27.424338 -0.393732 -6.103254 -37.676405 1.812456 10.006571 27.990685 -1.298011 19.605330 -26.816852 0.549500 4.748700 13.193300 27.897566 -5.950035 -7.424627 -0.994052 -8.053017 22.833896 0.428900 -15.586930 -25.411276 -0.129800 -2.322400 6.397500 3.670065 8.501336 0.480914 -1.731492 4.037193 -3.268166 -6.350319 8.396611 15.981975 -1.860400 3.470300 6.991200 -89.571275 4.537653 19.421471 15.123547 -24.838559 -3.645903 -0.192810 -0.048140 -1.073396 -7.125000 0.000000 0.000000 81.386830 5.434841 15.469875 -10.989271 18.741369 -2.007658 0.316383 0.378958 -7.395913 7.125000 0.000000 0.000000 
3.772155 17.706271 18.797459 -21.952963 -62.129899 27.921148 -0.654432 -4.913293 -38.137438 1.850430 10.089795 28.289893 -0.514770 16.528561 -27.680927 1.397900 7.479500 21.143900 28.343805 -5.901190 -6.897254 -0.945125 -7.930870 22.472599 0.477709 -16.059115 -25.687073 -0.108500 -2.123700 5.847700 3.706920 8.398557 0.454713 -1.754776 3.986129 -3.265477 -6.399879 8.558851 15.797624 -1.917800 3.575700 6.903600 -89.473982 4.776808 19.359549 14.942527 -24.604210 -3.568628 -0.194881 -0.048825 -1.461320 -7.125000 0.000000 0.000000 81.530652 5.437329 15.676607 -11.192788 19.043379 -2.081767 0.311840 0.461410 -7.573086 7.125000 0.000000 0.000000 
3.706807 17.696515 18.869921 -22.895339 -61.780416 28.794469 -0.732513 -3.719935 -38.559458 1.900602 10.175806 28.588135 0.232227 13.378078 -28.513537 2.470200 9.783600 28.278800 28.817374 -6.034521 -6.500726 -0.903886 -7.815598 22.130021 0.552152 -16.298203 -25.438053 -0.070100 -1.708700 4.701300 3.796690 8.658446 0.412406 -1.806404 4.105901 -3.307577 -6.226030 8.420282 15.505335 -1.832500 3.528700 6.691900 -89.624961 4.987249 19.529180 14.737696 -24.328811 -3.479410 -0.196525 -0.044581 -1.355509 -7.125000 0.000000 0.000000 81.443533 5.643394 15.071088 -11.114009 18.930833 -2.062718 0.306669 0.526383 -7.412217 7.125000 0.000000 0.000000 
3.641054 17.693872 18.952646 -22.790789 -61.770391 28.827961 -1.059364 -3.366811 -38.635790 1.964370 10.240914 28.778408 -0.913700 17.422485 -26.193731 1.101600 6.669100 18.738500 28.572289 -6.056243 -6.166606 -0.871092 -7.731077 21.875085 0.628529 -16.496958 -25.154945 -0.052400 -1.476800 4.061800 3.759029 9.029114 0.355748 -1.846106 4.289386 -3.334027 -6.005094 8.174952 15.475447 -1.698000 3.405300 6.597200 -89.807071 5.119462 19.781673 14.511382 -24.019976 -3.381997 -0.195331 -0.036670 -0.871509 -7.125000 0.000000 0.000000 81.168502 5.384075 14.359966 -11.188729 19.061692 -2.098421 0.293957 0.580828 -7.878402 7.125000 0.000000 0.000000 
3.574588 17.706779 19.033441 -21.545408 -61.884099 27.776204 -1.950162 -3.138571 -38.578178 1.945419 10.273208 28.902848 -0.111097 14.768140 -27.983437 2.213700 9.297700 26.731000 27.784218 -5.770453 -5.723087 -0.854073 -7.700263 21.783604 0.657384 -16.794855 -25.417273 -0.068900 -1.693500 4.659200 3.621113 9.233876 0.277561 -1.735008 4.392308 -3.548886 -5.725515 8.030486 15.641088 -1.530000 3.322600 6.598300 -89.990519 5.293494 19.548412 14.301536 -23.730451 -3.293502 -0.196047 -0.022682 -0.091931 -7.125000 0.000000 0.000000 81.151796 5.143103 13.411305 -11.389074 19.363173 -2.175394 0.283291 0.622428 -7.773662 7.125000 0.000000 0.000000 
3.512493 17.715621 19.121553 -20.362247 -61.479460 26.772578 -2.659424 -3.235082 -38.573750 1.958041 10.269556 28.868049 -1.027585 17.671805 -25.660500 1.311300 7.253500 20.468500 27.288813 -5.585022 -5.455250 -0.854666 -7.713620 21.824424 0.634915 -17.010478 -25.930879 -0.124000 -2.269800 6.251900 3.341103 8.240666 0.234463 -1.695982 3.921042 -3.623388 -5.715386 8.668104 16.000471 -1.628700 3.663600 6.907900 -89.543363 5.586643 17.649078 14.263150 -23.694404 -3.287011 -0.191305 -0.016346 0.003153 -7.125000 0.000000 0.000000 82.090436 5.698156 14.732736 -11.344095 19.259963 -2.154725 0.284199 0.642929 -7.359614 7.125000 0.000000 0.000000 
3.440642 17.715113 19.207328 -19.978753 -61.373127 26.475867 -3.118517 -2.871537 -38.551160 1.958933 10.267194 28.853561 -1.147950 17.682721 -24.750814 1.327400 7.296200 20.596000 27.030804 -5.055221 -5.040641 -0.866109 -7.751805 21.936903 0.684942 -17.497807 -26.284762 -0.148100 -2.479900 6.833800 3.334777 8.477382 0.207086 -1.615360 4.039021 -3.700941 -6.413858 8.664213 15.397117 -1.967700 3.673900 6.605800 -89.664578 5.744417 18.167624 14.008688 -23.352622 -3.181774 -0.187203 -0.009952 0.030977 -7.125000 0.000000 0.000000 82.073250 5.404294 13.697418 -11.670154 19.743314 -2.272947 0.278121 0.658044 -6.992921 7.125000 0.000000 0.000000 
